#!OML:ASF F:\VICON\USERDATA\INSTALL\rory3\rory3.ASF
:FULLY-SPECIFIED
:DEGREES
353
root 0.256287 18.0567 34.161 -6.25207 0.323559 -5.00492
lowerback 11.269 -0.629314 3.90498
upperback 0.0859281 -0.132589 3.01522
thorax -6.24782 -0.136433 0.993019
lowerneck -16.7194 -2.20303 -1.75813
upperneck 26.4008 -2.18266 -1.56767
head 11.3548 -1.368 -0.594757
rclavicle -9.90817e-015 7.95139e-016
rhumerus -34.5801 -20.2648 -74.592
rradius 21.535
rwrist 8.82236
rhand -17.9763 24.559
rfingers 7.12502
rthumb 8.29321 -5.25818
lclavicle -9.90817e-015 7.95139e-016
lhumerus -30.9415 -4.75919 84.5763
lradius 33.1628
lwrist 8.66405
lhand -27.7722 22.4832
lfingers 7.12502
lthumb -1.16586 52.4598
rfemur -10.0408 3.94754 31.4709
rtibia 27.2071
rfoot -9.21182 -3.7136
rtoes 8.9652
lfemur -10.3147 1.96952 -14.5097
ltibia 69.8787
lfoot 5.40212 -9.86858
ltoes -8.83428
354
root 0.248117 18.0661 34.3241 -6.25027 0.29032 -4.67366
lowerback 11.3115 -0.497841 3.63884
upperback 0.0569591 0.00174666 2.86665
thorax -6.30001 -0.0655491 0.964515
lowerneck -16.7402 -2.32266 -1.75178
upperneck 26.6107 -2.32933 -1.64961
head 11.4378 -1.44485 -0.650449
rclavicle 1.5704e-014 7.15625e-015
rhumerus -34.4888 -19.3176 -75.1892
rradius 22.2876
rwrist 7.67224
rhand -17.9171 23.9518
rfingers 7.12502
rthumb 8.35034 -5.8631
lclavicle 1.5704e-014 7.15625e-015
lhumerus -31.3347 -4.88115 84.8181
lradius 33.1061
lwrist 8.66951
lhand -27.7225 22.4622
lfingers 7.12502
lthumb -1.11793 52.439
rfemur -9.45315 3.82111 31.1967
rtibia 27.1978
rfoot -9.69056 -3.69612
rtoes 9.15287
lfemur -11.5005 2.23301 -14.9071
ltibia 70.174
lfoot 4.49015 -9.55214
ltoes -7.64243
355
root 0.244759 18.0691 34.4901 -6.25139 0.12981 -4.55933
lowerback 11.1837 -0.374148 3.62207
upperback 0.105283 0.149272 2.78913
thorax -6.17474 0.00755559 0.865944
lowerneck -16.6216 -2.35976 -1.76217
upperneck 26.5837 -2.3624 -1.71588
head 11.4032 -1.46889 -0.675594
rclavicle -9.69075e-015 1.27222e-014
rhumerus -34.1585 -18.3491 -75.8088
rradius 22.8552
rwrist 6.48078
rhand -17.8246 23.6122
rfingers 7.12502
rthumb 8.43963 -6.19913
lclavicle -9.69075e-015 1.27222e-014
lhumerus -31.6809 -4.76282 84.9623
lradius 33.1227
lwrist 8.31577
lhand -27.2999 22.3708
lfingers 7.12502
lthumb -0.709766 52.3493
rfemur -8.83958 3.67983 31.1509
rtibia 27.2389
rfoot -10.1993 -3.564
rtoes 9.06359
lfemur -12.5558 2.47853 -15.075
ltibia 70.276
lfoot 3.90359 -9.33551
ltoes -5.90909
356
root 0.247184 18.0783 34.6597 -6.20171 -0.10127 -4.5209
lowerback 11.0636 -0.258772 3.78564
upperback 0.153501 0.308161 2.69082
thorax -6.05276 0.0807506 0.643313
lowerneck -16.6794 -2.37383 -1.8584
upperneck 26.631 -2.40388 -1.53545
head 11.4369 -1.47424 -0.600704
rclavicle 2.4289e-015 7.95139e-016
rhumerus -33.7324 -17.6917 -76.3316
rradius 23.2408
rwrist 5.71766
rhand -17.7791 23.6305
rfingers 7.12502
rthumb 8.48351 -6.17905
lclavicle 2.4289e-015 7.95139e-016
lhumerus -31.917 -4.60872 85.0421
lradius 33.0631
lwrist 7.75977
lhand -26.7303 19.9157
lfingers 7.12502
lthumb -0.159592 49.8954
rfemur -8.17453 3.5568 31.145
rtibia 27.2216
rfoot -10.7714 -3.40603
rtoes 9.63392
lfemur -13.6212 2.69762 -15.1735
ltibia 70.2299
lfoot 3.37393 -9.11611
ltoes -4.49159
357
root 0.234217 18.0811 34.8199 -6.16105 -0.459014 -4.53506
lowerback 11.1348 -0.0930933 3.77263
upperback 0.197215 0.525282 2.63385
thorax -6.04233 0.187142 0.555513
lowerneck -16.8738 -2.40174 -1.84096
upperneck 26.6966 -2.47779 -1.41626
head 11.502 -1.49056 -0.574539
rclavicle 1.56294e-014 4.57205e-014
rhumerus -33.3317 -16.8289 -76.9715
rradius 23.7071
rwrist 4.72614
rhand -17.8053 24.2328
rfingers 7.12502
rthumb 8.45824 -5.57778
lclavicle 1.56294e-014 4.57205e-014
lhumerus -32.102 -4.75557 85.144
lradius 32.9535
lwrist 7.76061
lhand -25.2958 15.3725
lfingers 7.12502
lthumb 1.22584 45.3487
rfemur -7.54465 3.76861 31.2991
rtibia 27.1996
rfoot -11.2874 -3.41378
rtoes 9.80173
lfemur -14.7409 3.07256 -15.0891
ltibia 70.0987
lfoot 2.42777 -8.9903
ltoes -4.94715
358
root 0.224219 18.079 34.9773 -6.03555 -0.858452 -4.84159
lowerback 11.0888 0.066312 4.07931
upperback 0.157496 0.777554 2.66782
thorax -6.05103 0.30194 0.378687
lowerneck -16.5508 -2.45168 -1.83782
upperneck 26.4561 -2.5515 -1.44255
head 11.3453 -1.52603 -0.587226
rclavicle 8.83349e-015 -2.50469e-014
rhumerus -32.9624 -16.2616 -77.3722
rradius 23.8827
rwrist 4.12445
rhand -17.9389 25.0154
rfingers 7.12502
rthumb 8.32928 -4.80036
lclavicle 8.83349e-015 -2.50469e-014
lhumerus -32.5898 -4.7821 85.289
lradius 33.1321
lwrist 7.97921
lhand -26.9679 20.9403
lfingers 7.12502
lthumb -0.389074 50.9197
rfemur -7.04897 3.97483 31.7567
rtibia 27.1584
rfoot -11.7555 -3.41644
rtoes 9.80301
lfemur -15.9221 3.47739 -14.7079
ltibia 69.8357
lfoot 1.2703 -8.8804
ltoes -6.09407
359
root 0.228789 18.0658 35.1444 -5.78047 -1.03878 -4.9183
lowerback 10.7771 0.177335 4.39961
upperback 0.0632735 0.943972 2.56891
thorax -5.96491 0.373243 0.0700787
lowerneck -16.356 -2.52094 -1.79653
upperneck 26.4895 -2.66525 -1.44928
head 11.3183 -1.57423 -0.610469
rclavicle -1.95368e-014 -3.97569e-016
rhumerus -32.7445 -15.8089 -77.7598
rradius 24.207
rwrist 3.54434
rhand -18.3385 25.3806
rfingers 7.12502
rthumb 7.94365 -4.45016
lclavicle -1.95368e-014 -3.97569e-016
lhumerus -33.0085 -5.07077 85.4244
lradius 33.0474
lwrist 8.14176
lhand -26.6566 23.2218
lfingers 7.12502
lthumb -0.0883814 53.2016
rfemur -6.73059 3.81761 31.8305
rtibia 27.2201
rfoot -12.377 -3.13256
rtoes 9.83156
lfemur -17.1578 3.58526 -14.7322
ltibia 69.4331
lfoot 0.0173864 -8.43141
ltoes -6.03317
360
root 0.229478 18.0603 35.3088 -5.67618 -1.20094 -4.89216
lowerback 10.6898 0.275648 4.52202
upperback 0.0387309 1.08046 2.49072
thorax -5.93387 0.435756 -0.101331
lowerneck -16.4346 -2.55749 -1.74991
upperneck 26.6272 -2.71084 -1.50893
head 11.3846 -1.59793 -0.649983
rclavicle -3.85145e-016 -2.78299e-014
rhumerus -32.519 -14.823 -78.2642
rradius 24.8763
rwrist 2.79843
rhand -18.3984 24.2034
rfingers 7.12502
rthumb 7.88578 -5.6295
lclavicle -3.85145e-016 -2.78299e-014
lhumerus -33.1964 -5.37428 85.635
lradius 32.6668
lwrist 8.42208
lhand -25.3125 21.9311
lfingers 7.12502
lthumb 1.20976 51.9074
rfemur -6.24427 3.74088 31.8304
rtibia 27.3173
rfoot -13.0596 -3.02627
rtoes 9.67145
lfemur -18.151 3.72174 -14.8416
ltibia 68.8054
lfoot -1.33057 -7.97158
ltoes -5.09987
361
root 0.228233 18.053 35.459 -5.66914 -1.28065 -4.88536
lowerback 10.9771 0.338684 4.60155
upperback -0.0359439 1.19301 2.42211
thorax -6.16824 0.482346 -0.237974
lowerneck -16.2763 -2.54353 -1.49837
upperneck 26.4579 -2.66829 -1.85409
head 11.2783 -1.59654 -0.807165
rclavicle -7.46685e-015 1.47101e-014
rhumerus -32.1937 -14.0243 -78.6579
rradius 25.4896
rwrist 2.90899
rhand -18.0923 21.2116
rfingers 7.12502
rthumb 8.18126 -8.61002
lclavicle -7.46685e-015 1.47101e-014
lhumerus -33.6245 -5.57444 85.8123
lradius 32.7587
lwrist 8.68715
lhand -25.1987 17.003
lfingers 7.12502
lthumb 1.31966 46.9787
rfemur -5.72829 3.70456 31.8729
rtibia 27.4511
rfoot -13.6929 -3.00671
rtoes 9.80549
lfemur -19.1412 3.71885 -14.9385
ltibia 68.0186
lfoot -2.31108 -7.44815
ltoes -3.67712
362
root 0.225588 18.0416 35.6166 -5.57285 -1.49645 -4.94426
lowerback 11.1227 0.429197 4.74451
upperback -0.0885144 1.33996 2.35595
thorax -6.29621 0.545669 -0.412779
lowerneck -16.3793 -2.50212 -1.50464
upperneck 26.4057 -2.63059 -1.76309
head 11.2806 -1.56823 -0.768347
rclavicle -1.14425e-014 -5.96354e-015
rhumerus -31.7124 -13.427 -79.0507
rradius 25.8846
rwrist 3.01324
rhand -17.9927 19.0945
rfingers 7.12502
rthumb 8.27741 -10.7233
lclavicle -1.14425e-014 -5.96354e-015
lhumerus -33.9898 -5.59126 85.9226
lradius 32.7577
lwrist 8.86245
lhand -25.7589 20.059
lfingers 7.12502
lthumb 0.778579 50.0373
rfemur -5.29659 3.67609 31.9902
rtibia 27.5375
rfoot -14.2105 -2.92049
rtoes 10.2561
lfemur -20.1543 3.7725 -14.9455
ltibia 67.0427
lfoot -2.86835 -7.00173
ltoes -4.32889
363
root 0.217701 18.0333 35.782 -5.5183 -1.78915 -5.22292
lowerback 11.1001 0.517677 5.03952
upperback -0.0609007 1.49299 2.36182
thorax -6.24127 0.612877 -0.596141
lowerneck -16.4575 -2.50438 -1.7769
upperneck 26.3531 -2.7034 -1.2388
head 11.2893 -1.56168 -0.542041
rclavicle -1.47101e-014 -1.35174e-014
rhumerus -31.3019 -12.8423 -79.5021
rradius 26.4136
rwrist 2.55152
rhand -17.9101 18.4863
rfingers 7.12502
rthumb 8.35711 -11.3284
lclavicle -1.47101e-014 -1.35174e-014
lhumerus -34.2712 -5.53363 85.9127
lradius 32.6504
lwrist 8.7554
lhand -26.0344 21.6641
lfingers 7.12502
lthumb 0.512483 51.6433
rfemur -4.79459 3.80081 32.3934
rtibia 27.5622
rfoot -14.8203 -2.97288
rtoes 10.4716
lfemur -21.0502 3.93199 -14.6042
ltibia 65.9593
lfoot -3.25159 -6.70929
ltoes -5.65748
364
root 0.208152 18.0213 35.9362 -5.41948 -1.90738 -5.45737
lowerback 11.048 0.581136 5.23809
upperback -0.0435746 1.6003 2.39581
thorax -6.18466 0.661304 -0.68783
lowerneck -16.3281 -2.58574 -2.06915
upperneck 26.1274 -2.83975 -0.882539
head 11.19 -1.60706 -0.377785
rclavicle -6.94815e-015 -2.26615e-014
rhumerus -30.8978 -12.0839 -79.9218
rradius 26.9499
rwrist 2.02965
rhand -18.2415 17.8146
rfingers 7.12502
rthumb 8.0373 -12.0125
lclavicle -6.94815e-015 -2.26615e-014
lhumerus -34.448 -5.63344 86.0179
lradius 32.4938
lwrist 8.594
lhand -25.9052 22.2237
lfingers 7.12502
lthumb 0.637327 52.2025
rfemur -4.3614 3.89032 32.7572
rtibia 27.5514
rfoot -15.5859 -3.16881
rtoes 9.82356
lfemur -21.9399 3.92879 -14.3459
ltibia 64.7516
lfoot -3.76586 -6.32473
ltoes -7.84478
365
root 0.206511 18.008 36.0949 -5.26339 -1.97902 -5.69345
lowerback 11.0053 0.646691 5.60566
upperback -0.0222101 1.72793 2.36306
thorax -6.12073 0.713858 -0.947211
lowerneck -16.5213 -2.71633 -2.09456
upperneck 25.9752 -2.99885 -0.929684
head 11.1715 -1.68681 -0.414833
rclavicle 8.26199e-016 3.20043e-014
rhumerus -30.5155 -11.587 -80.2314
rradius 27.6218
rwrist 1.68213
rhand -18.2023 18.8112
rfingers 7.12502
rthumb 8.07513 -11.0145
lclavicle 8.26199e-016 3.20043e-014
lhumerus -34.6262 -5.89207 86.1092
lradius 32.4074
lwrist 8.67929
lhand -26.1076 20.581
lfingers 7.12502
lthumb 0.441837 50.5603
rfemur -3.89153 3.80869 33.0353
rtibia 27.4947
rfoot -16.2319 -3.13006
rtoes 9.72285
lfemur -22.7956 3.81966 -14.1591
ltibia 63.4269
lfoot -4.26108 -5.64946
ltoes -7.9367
366
root 0.2139 18.0056 36.2679 -5.10474 -2.09929 -5.56722
lowerback 10.8549 0.698279 5.63572
upperback -0.01936 1.78028 2.23682
thorax -6.02466 0.739204 -1.10212
lowerneck -16.555 -2.72485 -1.80831
upperneck 25.6661 -3.01903 -1.19162
head 11.0512 -1.70021 -0.557392
rclavicle -1.30235e-014 -1.68967e-014
rhumerus -30.08 -10.9514 -80.5888
rradius 28.0395
rwrist 1.21146
rhand -18.0981 21.9463
rfingers 7.12502
rthumb 8.17563 -7.8755
lclavicle -1.30235e-014 -1.68967e-014
lhumerus -34.9765 -5.81655 86.1322
lradius 32.4421
lwrist 8.98708
lhand -26.8999 18.9913
lfingers 7.12502
lthumb -0.323426 48.9708
rfemur -3.3411 3.46556 32.8224
rtibia 27.4027
rfoot -16.6814 -2.7401
rtoes 10.3459
lfemur -23.4221 3.65749 -14.4373
ltibia 61.8521
lfoot -4.96673 -4.59967
ltoes -7.42793
367
root 0.212756 17.9891 36.421 -5.00838 -2.35079 -5.86404
lowerback 11.0565 0.764093 5.88524
upperback -0.110653 1.92649 2.32819
thorax -6.22295 0.797795 -1.17291
lowerneck -16.4321 -2.65576 -1.6588
upperneck 25.3982 -2.93197 -1.31636
head 10.9215 -1.66129 -0.609378
rclavicle -2.07792e-015 -3.04141e-014
rhumerus -29.5374 -10.3979 -80.788
rradius 27.9643
rwrist 0.8463
rhand -18.1763 24.3477
rfingers 7.12502
rthumb 8.10014 -5.47708
lclavicle -2.07792e-015 -3.04141e-014
lhumerus -35.4184 -5.58515 86.2437
lradius 32.3426
lwrist 9.11469
lhand -27.4336 19.7136
lfingers 7.12502
lthumb -0.838912 49.6917
rfemur -2.81566 3.7643 33.2476
rtibia 27.2938
rfoot -16.8879 -2.8958
rtoes 10.573
lfemur -24.0111 3.56115 -14.1427
ltibia 60.1711
lfoot -6.09339 -3.42249
ltoes -9.98813
